<?xml version="1.0" encoding="utf-8"?>
<!-- Generator: Adobe Illustrator 23.0.1, SVG Export Plug-In . SVG Version: 6.00 Build 0)  -->
<svg version="1.1" id="Capa_1" xmlns="http://www.w3.org/2000/svg" xmlns:xlink="http://www.w3.org/1999/xlink" x="0px" y="0px"
	 viewBox="0 0 283.46 283.46" style="enable-background:new 0 0 283.46 283.46;" xml:space="preserve">
<style type="text/css">
	.st0{fill:#A8CCBA;}
	.st1{fill:#FFFFFF;}
</style>
<path class="st0" d="M141.73,283.46L141.73,283.46C63.46,283.46,0,220.01,0,141.73v0C0,63.46,63.46,0,141.73,0h0
	c78.28,0,141.73,63.46,141.73,141.73v0C283.46,220.01,220.01,283.46,141.73,283.46z"/>
<g>
	<path class="st1" d="M210.6,141.62c-0.01,0-0.01,0-0.02,0c0-9.95,0-19.9,0-29.85c0-3.39-0.34-6.74-1.24-10.02
		c-2.49-9.05-8.02-15.91-15.5-21.32c-7.67-5.55-16.46-7.53-25.75-7.56c-17.49-0.06-34.99-0.04-52.48-0.04
		c-2.64,0-5.27,0.14-7.88,0.52C97.17,74.9,88.47,79.9,81.46,87.8c-6.28,7.09-8.61,15.66-8.61,24.97c0,19.67,0,39.34,0,59
		c0,2.97,0.21,5.93,1,8.8c3.74,13.58,12.53,22.51,25.53,27.48c4.81,1.84,9.88,2.35,14.98,2.43c17.77,0.27,35.54,0.08,53.31,0.09
		c6.21,0,12.21-0.97,18.01-3.28c14.08-5.6,25-19.01,24.93-35.55C210.57,161.71,210.6,151.66,210.6,141.62z M200.28,171.45
		c-0.05,10.89-5.14,18.88-14.51,24.32c-5.51,3.2-11.41,4.56-17.74,4.53c-17.67-0.06-35.35-0.03-53.02-0.07
		c-4.12-0.01-8.19-0.51-12.13-1.86c-5.82-1.99-10.45-5.56-14.22-10.37c-4.02-5.13-5.65-10.96-5.57-17.44
		c0.12-9.62,0.03-19.25,0.03-28.87c-0.01,0-0.03,0-0.04,0c0-10.09-0.15-20.18,0.04-30.26c0.22-11.46,6.07-19.48,16.01-24.69
		c5.17-2.71,10.75-3.7,16.6-3.67c17.72,0.08,35.44,0.02,53.16,0.07c7.65,0.02,14.71,1.96,20.72,6.93
		c6.67,5.51,10.7,12.38,10.71,21.27C200.31,131.38,200.37,151.41,200.28,171.45z"/>
	<path class="st1" d="M184.75,104.68c-0.03,3.86-3.21,7.09-6.91,7.03c-3.66-0.07-6.72-3.33-6.67-7.12c0.05-3.83,3.12-7.02,6.77-7.03
		C181.64,97.54,184.77,100.83,184.75,104.68z"/>
	<path class="st1" d="M142.08,107.27c-17.67-0.24-32.39,14.06-32.58,31.65c-0.18,17.58,14.24,32.02,32.18,32.21
		c17.66,0.19,32.3-14.11,32.51-31.74C174.41,121.93,159.99,107.52,142.08,107.27z M141.81,160.86
		c-12.16-0.03-22.06-9.78-22.04-21.71c0.01-11.93,9.9-21.6,22.11-21.62c12.08-0.01,22,9.69,22.05,21.55
		C163.98,151.08,154.01,160.89,141.81,160.86z"/>
</g>
</svg>
